<!--?xml version="1.0" standalone="no"?-->
              <svg id="sw-js-blob-svg" viewBox="0 0 100 100" xmlns="http://www.w3.org/2000/svg" version="1.1">
                    <defs> 
                        <linearGradient id="sw-gradient" x1="0" x2="1" y1="1" y2="0">
                            <stop id="stop1" stop-color="rgba(248, 117, 55, 1)" offset="0%"></stop>
                            <stop id="stop2" stop-color="rgba(103.521, 138.956, 242.667, 1)" offset="100%"></stop>
                        </linearGradient>
                    </defs>
                <path fill="url(#sw-gradient)" d="M21.1,-24.9C27.3,-20,32.2,-13.3,35.3,-4.9C38.4,3.5,39.7,13.6,35.7,20.9C31.8,28.1,22.7,32.6,14.5,32.5C6.3,32.3,-1,27.5,-8.5,24.3C-16,21.2,-23.8,19.7,-29.6,14.7C-35.3,9.7,-38.9,1.1,-35.3,-4C-31.7,-9,-20.9,-10.5,-13.8,-15.3C-6.7,-20.1,-3.4,-28.1,2.1,-30.5C7.5,-33,15,-29.9,21.1,-24.9Z" width="100%" height="100%" transform="translate(50 50)" style="transition: all 0.3s ease 0s;" stroke-width="0" stroke="url(#sw-gradient)"></path>
              </svg>